<svg aria-hidden="true" style="position: absolute; width: 0; height: 0; overflow: hidden;" version="1.1" xmlns="http://www.w3.org/2000/svg" xmlns:xlink="http://www.w3.org/1999/xlink">
<defs>
<symbol id="icon-telegram" viewBox="0 0 33 32">
<path d="M32.19 0.573c-0.299-0.279-0.664-0.465-1.054-0.538s-0.791-0.031-1.161 0.122l-28.59 12.074c-0.439 0.183-0.81 0.514-1.058 0.944s-0.36 0.935-0.318 1.438c0.042 0.504 0.235 0.979 0.55 1.355s0.736 0.63 1.198 0.726l7.512 1.615v10.026c0.001 0.459 0.127 0.908 0.364 1.291s0.574 0.681 0.968 0.858c0.266 0.116 0.549 0.179 0.836 0.183 0.285 0.002 0.567-0.058 0.831-0.175s0.502-0.29 0.703-0.508l4.228-4.547 6.319 5.979c0.391 0.377 0.899 0.585 1.425 0.583 0.227 0.002 0.452-0.037 0.666-0.117 0.358-0.122 0.679-0.344 0.932-0.642s0.428-0.663 0.509-1.057l5.839-27.33c0.087-0.413 0.069-0.843-0.054-1.245s-0.345-0.76-0.643-1.037zM1.881 14.43c-0.011-0.070 0.002-0.142 0.036-0.203s0.087-0.107 0.15-0.13l23.929-10.109-16.014 12.441-7.852-1.699c-0.068-0.008-0.132-0.043-0.177-0.099s-0.071-0.127-0.070-0.201zM11.653 28.569c-0.043 0.048-0.099 0.081-0.16 0.093s-0.124 0.003-0.18-0.026c-0.054-0.026-0.101-0.067-0.134-0.121s-0.051-0.115-0.052-0.179v-8.644l4.662 4.43-4.135 4.447zM25.252 29.735c-0.011 0.058-0.035 0.111-0.071 0.156s-0.083 0.077-0.135 0.096-0.108 0.022-0.161 0.010c-0.054-0.012-0.103-0.039-0.144-0.078l-13.056-12.357 19.36-15.022-5.792 27.196z"></path>
</symbol>
<symbol id="icon-instagram" viewBox="0 0 32 32">
<path d="M15.996 7.79c-4.543 0-8.209 3.667-8.209 8.21s3.666 8.209 8.209 8.209c4.543 0 8.209-3.666 8.209-8.21s-3.666-8.21-8.209-8.21zM15.996 21.336c-2.938 0-5.336-2.398-5.336-5.336s2.398-5.336 5.336-5.336c2.938 0 5.335 2.398 5.335 5.336s-2.398 5.336-5.335 5.336zM24.541 5.541c-1.061 0-1.917 0.857-1.917 1.917s0.857 1.917 1.917 1.917c1.061 0 1.917-0.853 1.917-1.917 0-0.252-0.049-0.501-0.145-0.734s-0.237-0.444-0.416-0.622c-0.178-0.178-0.39-0.319-0.622-0.416s-0.482-0.146-0.734-0.145zM31.998 16c0-2.21 0.020-4.399-0.104-6.604-0.124-2.562-0.708-4.835-2.582-6.709-1.877-1.877-4.147-2.458-6.708-2.582-2.209-0.124-4.399-0.104-6.604-0.104-2.209 0-4.399-0.020-6.604 0.104-2.562 0.124-4.835 0.708-6.708 2.582-1.877 1.877-2.458 4.147-2.582 6.709-0.124 2.209-0.104 4.399-0.104 6.604s-0.020 4.399 0.104 6.604c0.124 2.562 0.708 4.835 2.582 6.708 1.877 1.877 4.147 2.458 6.708 2.582 2.209 0.124 4.399 0.104 6.604 0.104 2.209 0 4.399 0.020 6.604-0.104 2.562-0.124 4.835-0.708 6.708-2.582 1.877-1.877 2.458-4.147 2.582-6.708 0.128-2.206 0.104-4.395 0.104-6.604zM28.476 25.438c-0.292 0.728-0.644 1.273-1.209 1.833-0.564 0.564-1.105 0.917-1.833 1.209-2.105 0.837-7.105 0.648-9.438 0.648s-7.337 0.188-9.442-0.644c-0.728-0.292-1.273-0.644-1.833-1.209-0.564-0.564-0.917-1.105-1.209-1.833-0.833-2.109-0.644-7.109-0.644-9.442s-0.188-7.337 0.644-9.442c0.292-0.729 0.644-1.273 1.209-1.833s1.105-0.917 1.833-1.209c2.105-0.833 7.109-0.644 9.442-0.644s7.337-0.188 9.442 0.644c0.729 0.292 1.273 0.644 1.833 1.209 0.564 0.564 0.917 1.105 1.209 1.833 0.833 2.105 0.644 7.109 0.644 9.442s0.188 7.333-0.648 9.438z"></path>
</symbol>
<symbol id="icon-Vector" viewBox="0 0 60 32">
<path fill="#c0b7ae" style="fill: var(--color1, #c0b7ae)" d="M0 31.24l30-31.24 30 31.24h-60z"></path>
</symbol>
</defs>
</svg>
